<mxfile host="app.diagrams.net" agent="Mozilla/5.0 (Windows NT 10.0; Win64; x64) AppleWebKit/537.36 (KHTML, like Gecko) Chrome/137.0.0.0 Safari/537.36" version="27.1.4">
  <diagram name="Página-1" id="tcgNumXPmF2M-0RjSjxC">
    <mxGraphModel dx="872" dy="445" grid="1" gridSize="10" guides="1" tooltips="1" connect="1" arrows="1" fold="1" page="1" pageScale="1" pageWidth="827" pageHeight="1169" math="0" shadow="0">
      <root>
        <mxCell id="0" />
        <mxCell id="1" parent="0" />
        <mxCell id="FLsGE8eM9EQVvSfN9UOS-1" value="Diagrama de Atividade - Login" style="shape=umlFrame;whiteSpace=wrap;html=1;pointerEvents=0;width=190;height=30;" vertex="1" parent="1">
          <mxGeometry x="130" y="50" width="620" height="320" as="geometry" />
        </mxCell>
        <mxCell id="FLsGE8eM9EQVvSfN9UOS-8" value="" style="edgeStyle=orthogonalEdgeStyle;rounded=0;orthogonalLoop=1;jettySize=auto;html=1;" edge="1" parent="1" source="FLsGE8eM9EQVvSfN9UOS-2" target="FLsGE8eM9EQVvSfN9UOS-4">
          <mxGeometry relative="1" as="geometry" />
        </mxCell>
        <mxCell id="FLsGE8eM9EQVvSfN9UOS-2" value="" style="ellipse;html=1;shape=startState;fillColor=#000000;strokeColor=#ff0000;" vertex="1" parent="1">
          <mxGeometry x="170" y="140" width="30" height="30" as="geometry" />
        </mxCell>
        <mxCell id="FLsGE8eM9EQVvSfN9UOS-7" value="" style="edgeStyle=orthogonalEdgeStyle;rounded=0;orthogonalLoop=1;jettySize=auto;html=1;" edge="1" parent="1" source="FLsGE8eM9EQVvSfN9UOS-4" target="FLsGE8eM9EQVvSfN9UOS-6">
          <mxGeometry relative="1" as="geometry" />
        </mxCell>
        <mxCell id="FLsGE8eM9EQVvSfN9UOS-4" value="Clicar em Login" style="rounded=1;whiteSpace=wrap;html=1;arcSize=40;fontColor=#000000;fillColor=#ffffc0;strokeColor=#ff0000;" vertex="1" parent="1">
          <mxGeometry x="240" y="135" width="120" height="40" as="geometry" />
        </mxCell>
        <mxCell id="FLsGE8eM9EQVvSfN9UOS-10" value="" style="edgeStyle=orthogonalEdgeStyle;rounded=0;orthogonalLoop=1;jettySize=auto;html=1;" edge="1" parent="1" source="FLsGE8eM9EQVvSfN9UOS-6" target="FLsGE8eM9EQVvSfN9UOS-9">
          <mxGeometry relative="1" as="geometry" />
        </mxCell>
        <mxCell id="FLsGE8eM9EQVvSfN9UOS-6" value="Carrega o formulário de Login" style="rounded=1;whiteSpace=wrap;html=1;arcSize=40;fontColor=#000000;fillColor=#ffffc0;strokeColor=#ff0000;" vertex="1" parent="1">
          <mxGeometry x="414" y="135" width="120" height="40" as="geometry" />
        </mxCell>
        <mxCell id="FLsGE8eM9EQVvSfN9UOS-14" value="" style="edgeStyle=orthogonalEdgeStyle;rounded=0;orthogonalLoop=1;jettySize=auto;html=1;" edge="1" parent="1" source="FLsGE8eM9EQVvSfN9UOS-9" target="FLsGE8eM9EQVvSfN9UOS-11">
          <mxGeometry relative="1" as="geometry" />
        </mxCell>
        <mxCell id="FLsGE8eM9EQVvSfN9UOS-9" value="Insere os dados da conta" style="rounded=1;whiteSpace=wrap;html=1;arcSize=40;fontColor=#000000;fillColor=#ffffc0;strokeColor=#ff0000;" vertex="1" parent="1">
          <mxGeometry x="590" y="135" width="120" height="40" as="geometry" />
        </mxCell>
        <mxCell id="FLsGE8eM9EQVvSfN9UOS-15" style="edgeStyle=orthogonalEdgeStyle;rounded=0;orthogonalLoop=1;jettySize=auto;html=1;entryX=0.5;entryY=1;entryDx=0;entryDy=0;" edge="1" parent="1" source="FLsGE8eM9EQVvSfN9UOS-11" target="FLsGE8eM9EQVvSfN9UOS-6">
          <mxGeometry relative="1" as="geometry" />
        </mxCell>
        <mxCell id="FLsGE8eM9EQVvSfN9UOS-16" value="Dados Incorretos" style="edgeLabel;html=1;align=center;verticalAlign=middle;resizable=0;points=[];" vertex="1" connectable="0" parent="FLsGE8eM9EQVvSfN9UOS-15">
          <mxGeometry x="-0.3532" y="-2" relative="1" as="geometry">
            <mxPoint x="-1" y="-8" as="offset" />
          </mxGeometry>
        </mxCell>
        <mxCell id="FLsGE8eM9EQVvSfN9UOS-20" style="edgeStyle=orthogonalEdgeStyle;rounded=0;orthogonalLoop=1;jettySize=auto;html=1;entryX=1;entryY=0.5;entryDx=0;entryDy=0;" edge="1" parent="1" source="FLsGE8eM9EQVvSfN9UOS-11" target="FLsGE8eM9EQVvSfN9UOS-19">
          <mxGeometry relative="1" as="geometry">
            <Array as="points">
              <mxPoint x="650" y="300" />
            </Array>
          </mxGeometry>
        </mxCell>
        <mxCell id="FLsGE8eM9EQVvSfN9UOS-21" value="Dados Corretos" style="edgeLabel;html=1;align=center;verticalAlign=middle;resizable=0;points=[];" vertex="1" connectable="0" parent="FLsGE8eM9EQVvSfN9UOS-20">
          <mxGeometry x="0.2059" y="-1" relative="1" as="geometry">
            <mxPoint x="12" y="11" as="offset" />
          </mxGeometry>
        </mxCell>
        <mxCell id="FLsGE8eM9EQVvSfN9UOS-11" value="Validação" style="rhombus;whiteSpace=wrap;html=1;fontColor=#000000;fillColor=#ffffc0;strokeColor=#ff0000;" vertex="1" parent="1">
          <mxGeometry x="600" y="220" width="100" height="60" as="geometry" />
        </mxCell>
        <mxCell id="FLsGE8eM9EQVvSfN9UOS-23" value="" style="edgeStyle=orthogonalEdgeStyle;rounded=0;orthogonalLoop=1;jettySize=auto;html=1;" edge="1" parent="1" source="FLsGE8eM9EQVvSfN9UOS-19" target="FLsGE8eM9EQVvSfN9UOS-22">
          <mxGeometry relative="1" as="geometry" />
        </mxCell>
        <mxCell id="FLsGE8eM9EQVvSfN9UOS-19" value="Inicia a sessão com os dados do Login" style="rounded=1;whiteSpace=wrap;html=1;arcSize=40;fontColor=#000000;fillColor=#ffffc0;strokeColor=#ff0000;" vertex="1" parent="1">
          <mxGeometry x="414" y="280" width="120" height="40" as="geometry" />
        </mxCell>
        <mxCell id="FLsGE8eM9EQVvSfN9UOS-25" value="" style="edgeStyle=orthogonalEdgeStyle;rounded=0;orthogonalLoop=1;jettySize=auto;html=1;" edge="1" parent="1" source="FLsGE8eM9EQVvSfN9UOS-22" target="FLsGE8eM9EQVvSfN9UOS-24">
          <mxGeometry relative="1" as="geometry" />
        </mxCell>
        <mxCell id="FLsGE8eM9EQVvSfN9UOS-22" value="Carrega a Timeline" style="rounded=1;whiteSpace=wrap;html=1;arcSize=40;fontColor=#000000;fillColor=#ffffc0;strokeColor=#ff0000;" vertex="1" parent="1">
          <mxGeometry x="240" y="280" width="120" height="40" as="geometry" />
        </mxCell>
        <mxCell id="FLsGE8eM9EQVvSfN9UOS-24" value="" style="ellipse;html=1;shape=endState;fillColor=#000000;strokeColor=#ff0000;" vertex="1" parent="1">
          <mxGeometry x="170" y="285" width="30" height="30" as="geometry" />
        </mxCell>
      </root>
    </mxGraphModel>
  </diagram>
</mxfile>
